<?xml version="1.0" encoding="iso-8859-1"?>
<!-- Generator: Adobe Illustrator 19.0.0, SVG Export Plug-In . SVG Version: 6.00 Build 0)  -->
<svg version="1.1" id="Capa_1" xmlns="http://www.w3.org/2000/svg" xmlns:xlink="http://www.w3.org/1999/xlink" x="0px" y="0px"
	 viewBox="0 0 422.478 422.478" style="enable-background:new 0 0 422.478 422.478;" xml:space="preserve">
<g>
	<g>
		<path d="M417.792,216.359h-4.608v-75.776c0-20.992-16.896-37.888-37.888-37.888h-32.768c-20.992,0-37.888,16.896-37.888,37.888
			v75.776h-4.608c-3.072,0-5.12,2.048-5.12,5.12v8.192c0,0,0,0-0.512,0h-18.944v-8.192c0-3.072-2.048-5.12-5.12-5.12h-4.608v-75.776
			c0-20.992-16.896-37.888-37.888-37.888h-32.768c-20.992,0-37.888,16.896-37.888,37.888v75.776h-4.608
			c-3.072,0-5.12,2.048-5.12,5.12v8.192c0,0,0,0-0.512,0H128v-8.192c0-3.072-2.048-5.12-5.12-5.12h-4.608v-75.776
			c0-20.992-16.896-37.888-37.888-37.888H47.616c-20.992,0-37.888,16.896-37.888,37.888v75.776H5.12c-3.072,0-5.12,2.048-5.12,5.12
			v14.336c0,9.216,7.68,16.896,16.896,16.896h32.256v56.832H14.336c-3.072,0-5.12,2.048-5.12,5.12s2.048,5.12,5.12,5.12h39.936
			h18.944h128.512h18.944h128.512h18.944h39.936c3.072,0,5.12-2.048,5.12-5.12s-2.048-5.12-5.12-5.12h-34.816v-56.32h32.256
			c9.216,0,16.896-7.68,16.896-16.896v-14.336C422.912,218.919,420.864,216.359,417.792,216.359z M314.88,140.583
			c0-15.36,12.288-27.648,27.648-27.648h32.768c15.36,0,27.648,12.288,27.648,27.648v75.776H314.88V140.583z M167.424,140.583
			c0-15.36,12.288-27.648,27.648-27.648h32.768c15.36,0,27.648,12.288,27.648,27.648v75.776h-88.064V140.583z M19.968,140.583
			c0-15.36,12.288-27.648,27.648-27.648h32.768c15.36,0,27.648,12.288,27.648,27.648v75.776H19.968V140.583z M68.608,309.543h-8.704
			v-56.32h8.704V309.543z M54.784,242.983H17.408c-3.584,0-6.656-3.072-6.656-6.656v-9.216h4.608h98.816h4.608v9.216
			c0,3.584-3.072,6.656-6.656,6.656H74.752H54.784z M78.848,309.543v-56.32h32.256c8.192,0,14.848-5.632,16.384-13.312h19.456
			c0.512,0,0.512,0,1.024,0c1.536,7.68,8.192,13.312,16.384,13.312h32.256v56.32H78.848z M216.064,309.543h-8.704v-56.32h8.704
			V309.543z M202.24,242.983h-37.888c-3.584,0-6.656-3.072-6.656-6.656v-9.216h107.52v9.216c0,3.584-3.072,6.656-6.656,6.656
			h-37.376H202.24z M226.304,309.543v-56.32h32.256c8.192,0,14.848-5.632,16.384-13.312H294.4c0.512,0,0.512,0,1.024,0
			c1.536,7.68,8.192,13.312,16.384,13.312h32.256v56.32H226.304z M363.52,309.543h-8.704v-56.32h8.704V309.543z M413.696,236.327
			h-1.024c0,3.584-3.072,6.656-6.656,6.656H368.64h-18.944H312.32c-3.584,0-6.656-3.072-6.656-6.656v-9.216h4.608h98.816h4.608
			V236.327z"/>
	</g>
</g>
<g>
</g>
<g>
</g>
<g>
</g>
<g>
</g>
<g>
</g>
<g>
</g>
<g>
</g>
<g>
</g>
<g>
</g>
<g>
</g>
<g>
</g>
<g>
</g>
<g>
</g>
<g>
</g>
<g>
</g>
</svg>
