<svg height="512pt" viewBox="0 -1 512 512" width="512pt" xmlns="http://www.w3.org/2000/svg"><path d="m502 0h-492c-5.523438 0-10 4.476562-10 10v309.144531c0 5.519531 4.476562 10 10 10h492c5.523438 0 10-4.480469 10-10v-309.144531c0-5.523438-4.476562-10-10-10zm-35.925781 189.945312h.96875c-3.828125 22.089844-11.414063 71.269532-12.386719 119.199219h-12.667969v-161.667969c4.355469 9.582032 9.664063 18.65625 16.105469 26.460938-1.261719 1.675781-2.019531 3.75-2.019531 6.007812 0 5.523438 4.480469 10 10 10zm16.269531-20c-28.789062-22.578124-37.246094-78.746093-39.558594-102.066406h49.214844v102.066406zm-436.417969 20c5.519531 0 10-4.476562 10-10 0-2.257812-.757812-4.332031-2.019531-6.007812 6.441406-7.804688 11.75-16.878906 16.105469-26.460938v161.664063h-12.667969c-.972656-47.929687-8.554688-97.105469-12.386719-119.195313zm17.125-84.617187c-7.308593 30.894531-18.820312 53.132813-33.386719 64.617187h-9.664062v-102.066406h49.226562c-.878906 8.898438-2.660156 22.59375-6.175781 37.449219zm-43.050781 203.816406v-119.199219h4.636719c3.421875 19.367188 11.65625 70.511719 12.703125 119.199219zm70.015625 0v-241.265625h221.96875c5.523437 0 10-4.476562 10-10 0-5.523437-4.476563-10-10-10h-291.984375v-27.878906h472v27.878906h-100.023438c-5.523437 0-10 4.476563-10 10 0 5.523438 4.476563 10 10 10h30.007813v241.265625zm384.644531 0c1.046875-48.652343 9.285156-99.824219 12.703125-119.199219h4.636719v119.199219zm0 0"/><path d="m473.515625 384.425781c0-.066406.003906-.128906.003906-.195312 0-20.824219-16.941406-37.769531-37.769531-37.769531-20.820312 0-37.761719 16.945312-37.761719 37.769531 0 .066406.007813.128906.007813.195312-8.96875 4.835938-16.589844 11.859375-22.160156 20.339844-5.574219-8.480469-13.191407-15.503906-22.160157-20.34375 0-.0625.003907-.125.003907-.191406 0-20.828125-16.941407-37.769531-37.761719-37.769531-20.824219 0-37.769531 16.941406-37.769531 37.769531 0 .066406.003906.128906.003906.195312-8.964844 4.839844-16.582032 11.859375-22.152344 20.339844-5.574219-8.480469-13.1875-15.5-22.15625-20.339844 0-.066406.003906-.128906.003906-.195312 0-20.828125-16.941406-37.769531-37.769531-37.769531-20.820313 0-37.757813 16.941406-37.757813 37.769531 0 .066406.003907.128906.003907.191406-8.96875 4.839844-16.589844 11.863281-22.160157 20.34375-5.574218-8.480469-13.191406-15.503906-22.160156-20.339844 0-.066406.003906-.128906.003906-.195312 0-20.824219-16.9375-37.769531-37.761718-37.769531-20.824219 0-37.769532 16.945312-37.769532 37.769531 0 .066406.007813.128906.007813.195312-19.128906 10.320313-32.160156 30.546875-32.160156 53.765625v62.269532c0 5.523437 4.480469 10 10 10h19.660156c5.523437 0 10-4.476563 10-10 0-5.523438-4.476563-10-10-10h-9.660156v-52.269532c0-17.652344 11.203125-32.734375 26.867187-38.523437 4.46875-1.644531 9.175782-2.457031 13.933594-2.519531 1.480469-.019532 2.960938-.007813 4.441406-.007813 4.488282 0 8.980469-.039063 13.46875 0 4.875.046875 9.703125.839844 14.285156 2.539063 15.652344 5.792968 26.839844 20.871093 26.839844 38.511718v52.269532h-10.222656c-5.523438 0-10 4.476562-10 10 0 5.523437 4.476562 10 10 10h379.734375c5.523437 0 10-4.476563 10-10v-62.269532c0-23.21875-13.03125-43.445312-32.15625-53.765625zm-413.757813-6.8125c2.632813-6.53125 9.03125-11.152343 16.492188-11.152343 7.457031 0 13.851562 4.621093 16.480469 11.152343-4.226563-.527343-8.46875-.472656-12.722657-.472656-3.949218 0-7.898437 0-11.847656 0-2.804687 0-5.613281.125-8.402344.472656zm359.511719 0c2.628907-6.53125 9.023438-11.152343 16.480469-11.152343 7.460938 0 13.859375 4.621093 16.492188 11.152343-4.230469-.527343-8.476563-.472656-12.726563-.472656-3.949219 0-7.898437 0-11.84375 0-2.808594 0-5.617187.125-8.402344.472656zm-119.839843 0c2.628906-6.53125 9.03125-11.152343 16.492187-11.152343 7.453125 0 13.851563 4.621093 16.480469 11.152343-4.230469-.527343-8.472656-.472656-12.722656-.472656-3.949219 0-7.898438 0-11.84375 0-2.808594 0-5.617188.125-8.40625.472656zm-119.832032 0c2.628906-6.53125 9.027344-11.152343 16.480469-11.152343 7.460937 0 13.863281 4.621093 16.492187 11.152343-4.230468-.527343-8.472656-.472656-12.726562-.472656-3.949219 0-7.898438 0-11.847656 0-2.804688 0-5.609375.125-8.398438.472656zm-33.433594 60.578125c0-17.636718 11.179688-32.707031 26.824219-38.507812 4.484375-1.660156 9.21875-2.476563 13.992188-2.539063 1.457031-.015625 2.910156-.003906 4.367187-.003906 4.5 0 9-.039063 13.5 0 4.871094.042969 9.6875.835937 14.269532 2.523437 15.675781 5.78125 26.882812 20.867188 26.882812 38.527344v52.269532h-99.835938zm119.835938 0c0-17.660156 11.207031-32.746094 26.882812-38.53125 4.546876-1.675781 9.328126-2.460937 14.167969-2.519531 1.433594-.015625 2.871094 0 4.308594 0 4.453125 0 8.90625-.042969 13.359375 0 4.878906.046875 9.703125.84375 14.285156 2.539063 15.648438 5.796874 26.832032 20.871093 26.832032 38.511718v52.269532h-99.835938zm219.671875 52.269532h-99.835937v-52.269532c0-17.644531 11.1875-32.71875 26.84375-38.511718 4.46875-1.65625 9.1875-2.464844 13.949218-2.53125 1.484375-.019532 2.964844-.003907 4.449219-.003907 4.488281 0 8.980469-.042969 13.46875 0 4.871094.046875 9.679687.839844 14.257813 2.527344 15.667968 5.785156 26.867187 20.867187 26.867187 38.519531zm0 0"/><path d="m360.980469 54.050781c-1.636719-3.925781-5.695313-6.457031-9.945313-6.148437-4.152344.300781-7.742187 3.238281-8.894531 7.234375-1.152344 3.996093.394531 8.460937 3.789063 10.871093 3.367187 2.394532 7.925781 2.460938 11.371093.183594 3.945313-2.609375 5.460938-7.789062 3.679688-12.140625zm0 0"/><path d="m256 90.828125c-53.863281 0-97.683594 43.820313-97.683594 97.683594s43.820313 97.683593 97.683594 97.683593 97.683594-43.820312 97.683594-97.683593-43.820313-97.683594-97.683594-97.683594zm0 175.367187c-42.835938 0-77.683594-34.847656-77.683594-77.683593 0-42.835938 34.847656-77.683594 77.683594-77.683594s77.683594 34.847656 77.683594 77.683594c0 42.835937-34.847656 77.683593-77.683594 77.683593zm0 0"/><path d="m297.042969 170.914062-47.199219-28.269531c-6.207031-3.714843-13.671875-3.804687-19.96875-.238281s-10.054688 10.019531-10.054688 17.253906v56.261719c0 7.21875 3.746094 13.660156 10.019532 17.234375 3.082031 1.753906 6.453125 2.632812 9.816406 2.632812 3.480469 0 6.957031-.9375 10.113281-2.808593l47.199219-27.992188c6.066406-3.601562 9.699219-9.960937 9.714844-17.015625.015625-7.054687-3.589844-13.433594-9.640625-17.058594zm-57.222657 44.714844v-55.671875l46.703126 27.972657zm0 0"/><path d="m85.480469 496.640625c-1.582031-3.859375-5.570313-6.378906-9.738281-6.15625-4.058594.214844-7.652344 2.914063-8.960938 6.765625-1.339844 3.929688-.035156 8.429688 3.214844 11.015625 3.289062 2.613281 7.945312 2.894531 11.527344.691406 4.109374-2.53125 5.808593-7.871093 3.957031-12.316406zm0 0"/></svg>