<svg height="483pt" viewBox="0 -61 483.996 483" width="483pt" xmlns="http://www.w3.org/2000/svg"><path d="m451.03125 82.648438h-11.214844l7.738282-9.867188c.039062-.046875.078124-.09375.113281-.144531l9.941406-12.667969c2.632813-3.363281 3.789063-7.71875 3.171875-11.949219-.632812-4.292969-2.941406-8.042969-6.5-10.542969-1.714844-1.203124-3.597656-2.003906-5.550781-2.414062-5.871094-8.917969-15.953125-14.824219-27.40625-14.835938-6.039063.007813-11.683594 1.679688-16.546875 4.542969-4.515625-2.632812-9.75-4.164062-15.347656-4.167969-14.996094.015626-27.449219 10.816407-30.0625 25.058594-.457032.167969-.914063.324219-1.363282.515625-2.402344-14.496093-14.960937-25.5625-30.136718-25.578125-11.46875.011719-21.441407 6.332032-26.679688 15.671875-4.980469-2.285156-10.839844-2.046875-15.46875 1.207031-3.558594 2.5-5.867188 6.25-6.5 10.542969-.617188 4.234375.539062 8.585938 3.171875 11.949219l7.695313 9.800781-9.476563 12.078125c.554687-2.542968.796875-5.167968.703125-7.839844-.589844-16.269531-14.234375-29.730468-30.484375-30.160156-3.296875-13.335937-15.304687-23.242187-29.660156-23.253906-13.578125.011719-25.070313 8.871094-29.066407 21.117188l-2.097656 2.6875-2.542968-3.246094c-5.371094-6.851563-14.917969-8.460938-21.734376-3.675782-3.558593 2.503907-5.867187 6.25-6.5 10.542969-.621093 4.234375.535157 8.589844 3.171876 11.953125l7.691406 9.800782-9.480469 12.082031c.554687-2.539063.796875-5.167969.703125-7.839844-.34375-9.527344-5.175781-18.066406-12.375-23.617187.113281-1.085938.21875-2.171876.21875-3.292969 0-16.894531-13.691406-30.589844-30.585938-30.609375-12.277343.015625-22.839843 7.269531-27.707031 17.71875-3.773437-1.519532-7.882812-2.378906-12.191406-2.390625-6.171875.011719-11.933594 1.757812-16.867187 4.742187-5.109376-2.601562-11.265626-2.472656-16.078126.910156-3.558593 2.503907-5.867187 6.25-6.5 10.542969-.621093 4.234375.535157 8.589844 3.171876 11.953125l3.480468 4.4375c0 .082032-.011718.164063-.011718.242188 0 11.597656 5.953124 22.105468 15.917968 28.109375.179688.109375.304688.375.304688.664062 0 .453125-.371094.820313-.820313.820313h-12.296875c-18.175781 0-32.96875 14.789062-32.96875 32.964844v219.453124c0 8.25 6.707032 14.953126 14.953125 14.953126h438.085938c8.25 0 14.953125-6.707032 14.953125-14.953126v-231.042968c.003906-18.179688-14.785156-32.972656-32.964844-32.972656zm0 0" fill="#e6e7e8"/><path d="m92.375 82.246094h-12.296875c-2.65625 0-4.816406-2.15625-4.816406-4.820313 0-1.65625.816406-3.234375 2.238281-4.085937 8.371094-5.046875 13.984375-14.199219 13.984375-24.6875 0-15.914063-12.894531-28.8125-28.808594-28.828125-15.910156.019531-28.808593 12.914062-28.808593 28.828125 0 10.484375 5.613281 19.640625 13.984374 24.6875 1.421876.855468 2.242188 2.429687 2.242188 4.085937 0 2.660157-2.15625 4.820313-4.820312 4.820313h-12.296876c-16 0-28.96875 12.96875-28.96875 28.96875v83.558594c0 4.808593 3.230469 9.285156 7.96875 10.109374 6.128907 1.0625 11.449219-3.625 11.449219-9.558593v-72.269531c0-1.753907 1.417969-3.171876 3.171875-3.171876h.949219c1.753906 0 3.171875 1.417969 3.171875 3.171876v193.472656c0 7.058594 5.726562 12.78125 12.785156 12.78125s12.785156-5.722656 12.785156-12.78125v-90.507813c0-3.535156 2.855469-6.398437 6.386719-6.414062 3.527344.015625 6.386719 2.875 6.386719 6.414062v90.507813c0 7.058594 5.726562 12.78125 12.785156 12.78125s12.785156-5.722656 12.785156-12.78125v-193.472656c0-1.753907 1.417969-3.171876 3.171876-3.171876h.953124c1.75 0 3.171876 1.417969 3.171876 3.171876v72.269531c0 5.933593 5.316406 10.621093 11.445312 9.558593 4.738281-.824218 7.96875-5.300781 7.96875-10.109374v-83.558594c0-15.996094-12.96875-28.96875-28.96875-28.96875zm0 0" fill="#fa759e"/><path d="m435.027344 70.648438h-12.296875c-2.660157 0-4.820313-2.15625-4.820313-4.820313 0-1.652344.820313-3.234375 2.242188-4.085937 8.371094-5.042969 13.984375-14.195313 13.984375-24.683594 0-15.917969-12.898438-28.816406-28.808594-28.828125-15.914063.015625-28.808594 12.910156-28.808594 28.828125 0 10.484375 5.613281 19.640625 13.984375 24.683594 1.421875.855468 2.238282 2.433593 2.238282 4.085937 0 2.660156-2.152344 4.820313-4.816407 4.820313h-12.296875c-16 0-28.96875 12.96875-28.96875 28.96875v83.5625c0 4.804687 3.230469 9.28125 7.96875 10.105468 6.128906 1.066406 11.445313-3.625 11.445313-9.554687v-72.273438c0-1.75 1.421875-3.171875 3.171875-3.171875h.953125c1.753906 0 3.171875 1.421875 3.171875 3.171875v193.472657c0 7.058593 5.726562 12.785156 12.785156 12.785156s12.785156-5.726563 12.785156-12.785156v-90.511719c0-3.53125 2.855469-6.394531 6.386719-6.410157 3.527344.015626 6.386719 2.875 6.386719 6.410157v90.507812c0 7.058594 5.726562 12.785157 12.785156 12.785157s12.785156-5.726563 12.785156-12.785157v-193.46875c0-1.75 1.417969-3.171875 3.171875-3.171875h.949219c1.753906 0 3.171875 1.421875 3.171875 3.171875v72.273438c0 5.929687 5.320313 10.621093 11.449219 9.554687 4.738281-.824218 7.96875-5.300781 7.96875-10.105468v-83.5625c0-15.996094-12.96875-28.96875-28.96875-28.96875zm0 0" fill="#fa759e"/><path d="m435.980469 24.753906c-5.167969-3.636718-12.382813-2.101562-16.285157 2.871094l-39.214843 49.976562c-3.089844 3.9375-7.8125 6.234376-12.816407 6.234376h-1.945312c9.507812-4.527344 16.007812-14.355469 15.601562-25.675782-.511718-14.257812-12.585937-26.085937-26.851562-26.320312-15.308594-.253906-27.796875 12.078125-27.796875 27.324218 0 10.898438 6.390625 20.277344 15.617187 24.671876h-1.945312c-5.003906 0-9.726562-2.300782-12.816406-6.234376l-39.214844-49.980468c-3.902344-4.972656-11.117188-6.503906-16.285156-2.871094-5.511719 3.875-6.582032 11.523438-2.480469 16.757812l51.4375 65.554688c2.609375 3.324219 4.027344 7.429688 4.027344 11.65625v193.65625c0 5.207031 4.261719 9.472656 9.472656 9.472656h4.25c5.210937 0 9.472656-4.261718 9.472656-9.472656v-89.679688c0-3.207031 2.597657-5.796874 5.800781-5.796874 3.203126 0 5.800782 2.59375 5.800782 5.796874v89.679688c0 5.207031 4.257812 9.472656 9.472656 9.472656h4.25c5.207031 0 9.472656-4.261718 9.472656-9.472656v-193.65625c0-4.230469 1.421875-8.332031 4.027344-11.65625l51.4375-65.550781c4.09375-5.238281 3.019531-12.882813-2.488281-16.757813zm0 0" fill="#ffd7e5"/><path d="m195.980469 24.753906c-5.167969-3.636718-12.382813-2.101562-16.285157 2.871094l-39.214843 49.976562c-3.089844 3.9375-7.8125 6.234376-12.816407 6.234376h-1.945312c9.507812-4.527344 16.007812-14.355469 15.601562-25.675782-.511718-14.257812-12.585937-26.085937-26.851562-26.320312-15.308594-.253906-27.796875 12.078125-27.796875 27.324218 0 10.898438 6.390625 20.277344 15.617187 24.671876h-1.945312c-5.003906 0-9.726562-2.300782-12.816406-6.234376l-39.214844-49.980468c-3.902344-4.972656-11.117188-6.503906-16.285156-2.871094-5.511719 3.875-6.582032 11.523438-2.480469 16.757812l51.4375 65.554688c2.609375 3.324219 4.027344 7.429688 4.027344 11.65625v193.65625c0 5.207031 4.261719 9.472656 9.472656 9.472656h4.25c5.210937 0 9.472656-4.261718 9.472656-9.472656v-89.679688c0-3.207031 2.597657-5.796874 5.800781-5.796874 3.203126 0 5.800782 2.59375 5.800782 5.796874v89.679688c0 5.207031 4.257812 9.472656 9.472656 9.472656h4.25c5.207031 0 9.472656-4.261718 9.472656-9.472656v-193.65625c0-4.230469 1.421875-8.332031 4.027344-11.65625l51.4375-65.550781c4.09375-5.238281 3.019531-12.882813-2.488281-16.757813zm0 0" fill="#ffd7e5"/><path d="m315.980469 24.753906c-5.167969-3.636718-12.382813-2.101562-16.285157 2.871094l-39.214843 49.976562c-3.089844 3.9375-7.8125 6.234376-12.816407 6.234376h-1.945312c9.507812-4.527344 16.007812-14.355469 15.601562-25.675782-.511718-14.257812-12.585937-26.085937-26.851562-26.320312-15.308594-.253906-27.796875 12.078125-27.796875 27.324218 0 10.898438 6.390625 20.277344 15.617187 24.671876h-1.945312c-5.003906 0-9.726562-2.300782-12.816406-6.234376l-39.214844-49.980468c-3.902344-4.972656-11.117188-6.503906-16.285156-2.871094-5.511719 3.875-6.582032 11.523438-2.480469 16.757812l51.4375 65.554688c2.609375 3.324219 4.027344 7.429688 4.027344 11.65625v193.65625c0 5.207031 4.261719 9.472656 9.472656 9.472656h4.25c5.210937 0 9.472656-4.261718 9.472656-9.472656v-89.679688c0-3.207031 2.597657-5.796874 5.800781-5.796874 3.203126 0 5.800782 2.59375 5.800782 5.796874v89.679688c0 5.207031 4.257812 9.472656 9.472656 9.472656h4.25c5.207031 0 9.472656-4.261718 9.472656-9.472656v-193.65625c0-4.230469 1.421875-8.332031 4.027344-11.65625l51.4375-65.550781c4.09375-5.238281 3.019531-12.882813-2.488281-16.757813zm0 0" fill="#ffd7e5"/><path d="m453.042969 167.136719h-438.082031c-6.050782 0-10.953126 4.90625-10.953126 10.953125v152.582031c0 6.046875 4.902344 10.949219 10.953126 10.949219h438.082031c6.050781 0 10.953125-4.902344 10.953125-10.949219v-152.582031c0-6.046875-4.898438-10.953125-10.953125-10.953125zm-377.375 131.183593c0 8.6875-7.039063 15.726563-15.722657 15.726563h-11.886718c-8.683594 0-15.722656-7.039063-15.722656-15.726563v-87.878906c0-8.683594 7.039062-15.722656 15.722656-15.722656h11.886718c8.683594 0 15.722657 7.039062 15.722657 15.722656zm72 0c0 8.6875-7.039063 15.726563-15.722657 15.726563h-11.886718c-8.683594 0-15.722656-7.039063-15.722656-15.726563v-87.878906c0-8.683594 7.039062-15.722656 15.722656-15.722656h11.886718c8.683594 0 15.722657 7.039062 15.722657 15.722656zm72 0c0 8.6875-7.039063 15.726563-15.722657 15.726563h-11.886718c-8.683594 0-15.722656-7.039063-15.722656-15.726563v-87.878906c0-8.683594 7.039062-15.722656 15.722656-15.722656h11.886718c8.683594 0 15.722657 7.039062 15.722657 15.722656zm72 0c0 8.6875-7.039063 15.726563-15.722657 15.726563h-11.886718c-8.683594 0-15.722656-7.039063-15.722656-15.726563v-87.878906c0-8.683594 7.039062-15.722656 15.722656-15.722656h11.886718c8.683594 0 15.722657 7.039062 15.722657 15.722656zm72 0c0 8.6875-7.039063 15.726563-15.722657 15.726563h-11.886718c-8.683594 0-15.722656-7.039063-15.722656-15.726563v-87.878906c0-8.683594 7.039062-15.722656 15.722656-15.722656h11.886718c8.683594 0 15.722657 7.039062 15.722657 15.722656zm72 0c0 8.6875-7.039063 15.726563-15.722657 15.726563h-11.886718c-8.683594 0-15.722656-7.039063-15.722656-15.726563v-87.878906c0-8.683594 7.039062-15.722656 15.722656-15.722656h11.886718c8.683594 0 15.722657 7.039062 15.722657 15.722656zm0 0" fill="#fff"/><path d="m453.042969 179.136719h-438.082031c-6.050782 0-10.953126 4.90625-10.953126 10.953125v140.582031c0 6.046875 4.902344 10.949219 10.953126 10.949219h438.082031c6.050781 0 10.953125-4.902344 10.953125-10.949219v-140.582031c0-6.046875-4.898438-10.953125-10.953125-10.953125zm-377.375 43.304687v75.882813c0 8.6875-7.039063 15.726562-15.722657 15.726562h-11.886718c-8.683594 0-15.722656-7.039062-15.722656-15.726562v-87.882813c0-8.683594 7.039062-15.722656 15.722656-15.722656h11.886718c8.683594 0 15.722657 7.039062 15.722657 15.722656zm72 0v75.882813c0 8.6875-7.039063 15.726562-15.722657 15.726562h-11.886718c-8.683594 0-15.722656-7.039062-15.722656-15.726562v-87.882813c0-8.683594 7.039062-15.722656 15.722656-15.722656h11.886718c8.683594 0 15.722657 7.039062 15.722657 15.722656zm72 0v75.882813c0 8.6875-7.039063 15.726562-15.722657 15.726562h-11.886718c-8.683594 0-15.722656-7.039062-15.722656-15.726562v-87.882813c0-8.683594 7.039062-15.722656 15.722656-15.722656h11.886718c8.683594 0 15.722657 7.039062 15.722657 15.722656zm72 0v75.882813c0 8.6875-7.039063 15.726562-15.722657 15.726562h-11.886718c-8.683594 0-15.722656-7.039062-15.722656-15.726562v-87.882813c0-8.683594 7.039062-15.722656 15.722656-15.722656h11.886718c8.683594 0 15.722657 7.039062 15.722657 15.722656zm72 0v75.882813c0 8.6875-7.039063 15.726562-15.722657 15.726562h-11.886718c-8.683594 0-15.722656-7.039062-15.722656-15.726562v-87.882813c0-8.683594 7.039062-15.722656 15.722656-15.722656h11.886718c8.683594 0 15.722657 7.039062 15.722657 15.722656zm72 0v75.882813c0 8.6875-7.039063 15.726562-15.722657 15.726562h-11.886718c-8.683594 0-15.722656-7.039062-15.722656-15.726562v-87.882813c0-8.683594 7.039062-15.722656 15.722656-15.722656h11.886718c8.683594 0 15.722657 7.039062 15.722657 15.722656zm0 0" fill="#6dc9f7"/><g fill="#3a2c60"><path d="m435.03125 66.648438h-11.214844l17.792969-22.675782c2.632813-3.363281 3.789063-7.71875 3.171875-11.949218-.632812-4.292969-2.941406-8.042969-6.5-10.542969-1.738281-1.222657-3.65625-2.019531-5.636719-2.425781-5.871093-8.890626-15.886719-14.816407-27.316406-14.828126-6.039063.007813-11.6875 1.679688-16.550781 4.542969-4.511719-2.636719-9.746094-4.167969-15.34375-4.171875-14.988282.015625-27.390625 10.8125-30.007813 25.042969-.484375.175781-.96875.34375-1.441406.546875-2.398437-14.5-14.933594-25.574219-30.109375-25.589844-11.46875.011719-21.410156 6.347656-26.644531 15.691406-4.988281-2.300781-10.863281-2.070312-15.503907 1.191407-3.558593 2.5-5.867187 6.25-6.5 10.542969-.617187 4.234374.539063 8.585937 3.171876 11.949218l7.695312 9.800782-9.476562 12.078124c.554687-2.542968.796874-5.167968.703124-7.839843-.589843-16.269531-14.234374-29.730469-30.488281-30.160157-3.296875-13.335937-15.300781-23.238281-29.652343-23.253906-13.546876.011719-24.996094 8.835938-29.007813 21.039063l-2.167969 2.761719-2.542968-3.246094c-5.371094-6.851563-14.917969-8.460938-21.734376-3.675782-3.558593 2.503907-5.867187 6.25-6.5 10.542969-.621093 4.234375.535157 8.589844 3.171876 11.953125l7.691406 9.800782-9.480469 12.082031c.554687-2.539063.796875-5.167969.703125-7.839844-.34375-9.527344-5.175781-18.066406-12.371094-23.617187.117188-1.085938.21875-2.171876.21875-3.292969 0-16.894531-13.691406-30.589844-30.585937-30.609375-12.28125.015625-22.820313 7.285156-27.6875 17.734375-3.777344-1.53125-7.890625-2.402344-12.214844-2.40625-6.175781.011719-11.945313 1.75-16.882813 4.734375-5.105468-2.59375-11.253906-2.460938-16.066406.917968-3.558594 2.503907-5.867187 6.25-6.5 10.542969-.621094 4.234375.535156 8.589844 3.171875 11.953125l3.480469 4.4375c0 .082032-.011719.164063-.011719.242188 0 11.597656 5.953125 22.105468 15.917969 28.109375.179688.109375.304688.375.304688.664062 0 .453125-.371094.820313-.820313.820313h-12.296875c-18.175781 0-32.96875 14.789062-32.96875 32.964844v219.460937c0 8.246094 6.707031 14.949219 14.953125 14.949219h238.375c2.210937 0 4-1.785156 4-4 0-2.210938-1.789063-4-4-4h-238.367187c-3.832032 0-6.953126-3.117188-6.953126-6.949219v-152.578125c0-3.832031 3.121094-6.953125 6.953126-6.953125h438.082031c3.832031 0 6.953125 3.121094 6.953125 6.953125v152.582031c0 3.832031-3.121094 6.949219-6.953125 6.949219h-133.039063c-2.210937 0-4 1.789062-4 4 0 2.214844 1.789063 4 4 4h133.042969c8.25 0 14.953125-6.707031 14.953125-14.949219v-231.054687c0-18.179688-14.789062-32.972656-32.96875-32.972656zm.28125-27.609376-51.433594 65.554688c-3.148437 4.007812-4.882812 9.027344-4.882812 14.125v44.421875h-49.984375v-44.421875c0-5.097656-1.734375-10.117188-4.878907-14.125l-25.042968-31.914062 9.742187-12.421876 15.542969 19.808594c3.867188 4.929688 9.6875 7.761719 15.964844 7.761719h1.945312c1.871094 0 3.488282-1.292969 3.902344-3.113281.414062-1.824219-.496094-3.691406-2.183594-4.496094-8.101562-3.855469-13.335937-12.117188-13.335937-21.054688 0-6.304687 2.476562-12.214843 6.972656-16.636718s10.472656-6.878906 16.753906-6.691406c12.203125.203124 22.480469 10.277343 22.921875 22.464843.332032 9.304688-4.902344 17.910157-13.324218 21.917969-1.6875.804688-2.59375 2.671875-2.183594 4.496094.414062 1.820312 2.03125 3.113281 3.902344 3.113281h1.945312c6.277344 0 12.097656-2.832031 15.964844-7.761719l39.214844-49.972656c2.695312-3.441406 7.550781-4.378906 10.835937-2.070312 1.75 1.230468 2.878906 3.0625 3.1875 5.167968.316406 2.101563-.234375 4.175782-1.546875 5.847656zm-12.007812-18.996093c-2.550782 1.066406-4.910157 2.753906-6.757813 5.109375l-25.300781 32.246094c-3.203125-2.214844-5.800782-5.042969-7.621094-8.324219-.46875-1.335938-1.054688-2.617188-1.6875-3.867188-.898438-2.582031-1.414062-5.3125-1.414062-8.148437 0-13.679688 11.132812-24.820313 24.808593-24.832032 7.078125.007813 13.449219 3.035157 17.972657 7.816407zm-150.609376 18.996093c-1.3125-1.671874-1.863281-3.75-1.554687-5.847656.308594-2.105468 1.4375-3.9375 3.1875-5.167968 3.28125-2.300782 8.136719-1.375 10.835937 2.070312l3.757813 4.785156-9.746094 12.417969zm-89.855468-8.945312c2.699218-3.441406 7.554687-4.378906 10.832031-2.070312v.003906c1.75 1.226562 2.878906 3.058594 3.1875 5.160156.3125 2.097656-.242187 4.179688-1.550781 5.851562l-6.480469 8.253907-9.742187-12.417969zm-31.699219 3.09375c.308594-2.101562 1.4375-3.933594 3.1875-5.164062 3.273437-2.300782 8.136719-1.378907 10.832031 2.070312l39.210938 49.972656c3.871094 4.929688 9.6875 7.761719 15.964844 7.761719h1.945312c1.867188 0 3.492188-1.292969 3.902344-3.113281.414062-1.824219-.496094-3.691406-2.183594-4.496094-8.101562-3.855469-13.335938-12.117188-13.335938-21.054688 0-6.300781 2.476563-12.214843 6.976563-16.636718 4.496094-4.417969 10.5-6.875 16.753906-6.691406 12.199219.203124 22.484375 10.277343 22.925781 22.464843.332032 9.304688-4.898437 17.910157-13.324218 21.917969-1.6875.804688-2.59375 2.671875-2.183594 4.496094.414062 1.820312 2.03125 3.113281 3.902344 3.113281h1.945312c6.277344 0 12.097656-2.832031 15.964844-7.761719l39.214844-49.972656c2.695312-3.441406 7.550781-4.378906 10.835937-2.070312 1.75 1.230468 2.878907 3.0625 3.1875 5.167968.308594 2.097656-.242187 4.175782-1.554687 5.847656l-51.429688 65.554688c-3.148437 4.007812-4.882812 9.027344-4.882812 14.125v44.421875h-49.984375v-44.421875c0-5.097656-1.734375-10.113281-4.882813-14.125l-51.433594-65.554688c-1.3125-1.671874-1.863281-3.75-1.554687-5.851562zm-64.214844 10.25c-2.757812 4.726562-4.253906 10.101562-4.253906 15.726562 0 1.265626.097656 2.519532.25 3.757813-.285156.398437-.597656.78125-.910156 1.164063l-29.753907-37.921876c3.171876-1.480468 6.695313-2.339843 10.417969-2.339843 11.886719.015625 21.84375 8.433593 24.25 19.613281zm-55.785156-10.25c.308594-2.101562 1.4375-3.933594 3.1875-5.164062 3.273437-2.300782 8.136719-1.378907 10.832031 2.070312l39.210938 49.972656c3.871094 4.929688 9.6875 7.761719 15.964844 7.761719h1.945312c1.867188 0 3.492188-1.292969 3.902344-3.113281.414062-1.824219-.496094-3.691406-2.183594-4.496094-8.101562-3.855469-13.335938-12.117188-13.335938-21.054688 0-6.300781 2.476563-12.214843 6.976563-16.636718 4.496094-4.417969 10.472656-6.875 16.753906-6.691406 12.203125.203124 22.484375 10.277343 22.921875 22.464843.335938 9.304688-4.890625 17.910157-13.320312 21.917969-1.6875.804688-2.597656 2.671875-2.183594 4.496094.410156 1.820312 2.03125 3.113281 3.902344 3.113281h1.945312c6.273438 0 12.09375-2.832031 15.960938-7.761719l15.546875-19.8125 9.746093 12.421875-25.042968 31.914063c-3.148438 4.011718-4.882813 9.027344-4.882813 14.125v44.425781h-49.976562v-44.421875c0-5.097656-1.734375-10.113281-4.882813-14.125l-51.433594-65.554688c-1.3125-1.671874-1.863281-3.75-1.554687-5.851562zm-23.132813 131.746094v-53.71875c0-13.765625 11.199219-24.964844 24.96875-24.964844h12.296876c4.300781 0 7.886718-3.109375 8.652343-7.191406l23.910157 30.476562c2.046874 2.605469 3.175781 5.871094 3.175781 9.1875v44.417969h-46.289063v-40.085937c0-3.957032-3.214844-7.175782-7.171875-7.175782h-.949219c-3.957031 0-7.171874 3.21875-7.171874 7.175782v40.085937h-4.46875c-2.523438 0-4.863282.683594-6.953126 1.792969zm445.035157-1.792969h-4.46875v-51.683594c0-3.949219-3.21875-7.171875-7.171875-7.171875h-.949219c-3.953125 0-7.171875 3.222656-7.171875 7.171875v51.683594h-46.285156v-44.421875c0-3.316406 1.128906-6.582031 3.175781-9.1875l28.265625-36.023438c1.269531.71875 2.730469 1.140626 4.292969 1.140626h12.296875c13.769531 0 24.96875 11.203124 24.96875 24.96875v65.316406c-2.085938-1.109375-4.429688-1.792969-6.953125-1.792969zm0 0"/><path d="m302.671875 337.625h-32c-2.210937 0-4 1.789062-4 4 0 2.214844 1.789063 4 4 4h32c2.210937 0 4-1.785156 4-4 0-2.210938-1.792969-4-4-4zm0 0"/><path d="m419.945312 318.046875c10.878907 0 19.726563-8.847656 19.726563-19.726563v-87.878906c0-10.878906-8.847656-19.726562-19.726563-19.726562h-11.886718c-10.878906 0-19.726563 8.847656-19.726563 19.726562v87.882813c0 10.878906 8.847657 19.726562 19.726563 19.726562h11.886718zm-11.886718-119.332031h11.886718c6.460938 0 11.726563 5.257812 11.726563 11.726562v87.882813c0 6.464843-5.261719 11.726562-11.726563 11.726562h-2.519531c-1.058593-1.441406-1.710937-3.191406-1.710937-5.117187v-90.511719c0-5.722656-4.652344-10.390625-10.398438-10.410156-3.761718.011719-7.023437 2.050781-8.84375 5.054687.691406-5.8125 5.59375-10.351562 11.585938-10.351562zm0 0"/><path d="m48.058594 190.714844c-10.875 0-19.722656 8.847656-19.722656 19.726562v87.882813c0 10.878906 8.847656 19.726562 19.722656 19.726562h11.886718c10.875 0 19.722657-8.847656 19.722657-19.726562v-87.882813c0-10.878906-8.847657-19.726562-19.722657-19.726562zm23.609375 19.726562v10.476563c-1.789063-3.140625-5.128907-5.296875-9.007813-5.3125-5.714844.023437-10.367187 4.695312-10.367187 10.414062v84.03125h-4.230469c-6.460938 0-11.722656-5.257812-11.722656-11.726562v-87.882813c0-6.464844 5.261718-11.726562 11.722656-11.726562h11.886719c6.457031 0 11.71875 5.261718 11.71875 11.726562zm0 0"/><path d="m295.671875 298.320312v-87.878906c0-10.878906-8.847656-19.726562-19.726563-19.726562h-11.886718c-10.878906 0-19.726563 8.847656-19.726563 19.726562v87.882813c0 10.878906 8.847657 19.726562 19.726563 19.726562h11.886718c10.878907-.003906 19.726563-8.851562 19.726563-19.730469zm-43.335937 0v-87.878906c0-4.644531 2.734374-8.628906 6.660156-10.527344v108.9375c-3.925782-1.902343-6.660156-5.886718-6.660156-10.53125zm0 0"/><path d="m120.058594 190.714844c-10.875 0-19.722656 8.847656-19.722656 19.726562v87.882813c0 10.878906 8.847656 19.726562 19.722656 19.726562h11.886718c10.875 0 19.722657-8.847656 19.722657-19.726562v-87.882813c0-10.878906-8.847657-19.726562-19.722657-19.726562zm3.742187 119.332031v-87.351563c0-5.40625-4.398437-9.796874-9.800781-9.796874-2.128906 0-4.066406.710937-5.667969 1.871093v-4.328125c0-6.464844 5.261719-11.726562 11.722657-11.726562h11.886718c2.65625 0 5.078125.917968 7.046875 2.414062v106.5c-1.96875 1.496094-4.390625 2.417969-7.046875 2.417969zm0 0"/><path d="m192.058594 190.714844c-10.875 0-19.722656 8.847656-19.722656 19.726562v87.882813c0 10.878906 8.847656 19.726562 19.722656 19.726562h11.886718c10.875 0 19.722657-8.847656 19.722657-19.726562v-87.882813c0-10.878906-8.847657-19.726562-19.722657-19.726562zm23.609375 19.726562v87.882813c0 4.644531-2.730469 8.625-6.65625 10.527343v-108.9375c3.925781 1.898438 6.65625 5.882813 6.65625 10.527344zm0 0"/><path d="m336.058594 318.046875h11.886718c10.878907 0 19.726563-8.847656 19.726563-19.726563v-87.878906c0-10.878906-8.847656-19.726562-19.726563-19.726562h-11.886718c-10.878906 0-19.726563 8.847656-19.726563 19.726562v87.882813c.003907 10.875 8.851563 19.722656 19.726563 19.722656zm11.886718-119.332031c6.460938 0 11.726563 5.257812 11.726563 11.726562v4.332032c-1.601563-1.160157-3.539063-1.875-5.667969-1.875-5.402344 0-9.796875 4.394531-9.796875 9.796874v87.351563h-8.144531c-2.65625 0-5.082031-.921875-7.050781-2.417969v-106.496094c1.96875-1.496093 4.394531-2.414062 7.050781-2.414062h11.882812zm0 0"/></g></svg>