<svg xmlns="http://www.w3.org/2000/svg" width="21.5" height="21.5" viewBox="0 0 21.5 21.5"><defs><style>.a{fill:#fff;}</style></defs><g transform="translate(-8)"><g transform="translate(8)"><path class="a" d="M21.5,10.75A10.75,10.75,0,1,0,10.75,21.5,10.75,10.75,0,0,0,21.5,10.75Zm-20.523,0a9.773,9.773,0,1,1,9.773,9.773A9.773,9.773,0,0,1,.977,10.75Z"/><path class="a" d="M227.124,142.249v-6.2h2.047l.323-2.056h-2.371v-1.031c0-.537.176-1.049.946-1.049h1.539v-2.052h-2.185c-1.837,0-2.339,1.21-2.339,2.887v1.244h-1.261v2.057h1.261v6.2Z" transform="translate(-215.962 -125.294)"/></g></g></svg>