<svg xmlns="http://www.w3.org/2000/svg" width="27.824" height="27.824" viewBox="0 0 27.824 27.824"><defs><style>.a{fill:none;stroke:#fff;}</style></defs><g transform="translate(0.5 0.5)"><path class="a" d="M22.541,25.226a2.681,2.681,0,1,0-2.684-2.686A2.689,2.689,0,0,0,22.541,25.226Z" transform="translate(-9.129 -9.129)"/><path class="a" d="M33.477,16.546V13.96h-.337l-2.25.007.009,2.586Z" transform="translate(-14.202 -6.418)"/><path class="a" d="M13.412,0A13.412,13.412,0,1,0,26.824,13.412,13.427,13.427,0,0,0,13.412,0ZM21.04,11.847v6.245a2.951,2.951,0,0,1-2.948,2.949H8.733a2.951,2.951,0,0,1-2.948-2.949V8.733A2.951,2.951,0,0,1,8.733,5.785h9.359A2.951,2.951,0,0,1,21.04,8.733Z"/><path class="a" d="M23.771,23.494a4.172,4.172,0,1,1-8.037-1.565H13.457v6.245a1.462,1.462,0,0,0,1.462,1.461h9.359a1.462,1.462,0,0,0,1.462-1.461V21.929H23.461A4.115,4.115,0,0,1,23.771,23.494Z" transform="translate(-6.187 -10.082)"/></g></svg>