<?xml version="1.0" standalone="no"?>
<!DOCTYPE svg PUBLIC "-//W3C//DTD SVG 20010904//EN"
 "http://www.w3.org/TR/2001/REC-SVG-20010904/DTD/svg10.dtd">
<svg version="1.0" xmlns="http://www.w3.org/2000/svg"
 width="812.000000pt" height="980.000000pt" viewBox="0 0 812.000000 980.000000"
 preserveAspectRatio="xMidYMid meet">
<metadata>
Created by potrace 1.15, written by Peter Selinger 2001-2017
</metadata>
<g transform="translate(0.000000,980.000000) scale(0.100000,-0.100000)"
fill="#000000" stroke="none">
<path d="M0 4900 l0 -4900 4060 0 4060 0 0 4133 0 4133 -782 767 -783 767
-3277 0 -3278 0 0 -4900z m7262 4037 l757 -742 0 -4042 1 -4043 -3960 0 -3960
0 0 4785 0 4785 3203 0 3202 -1 757 -742z"/>
<path d="M5930 8725 l0 -765 780 0 780 0 0 155 0 155 -625 0 -625 0 0 610 0
610 -155 0 -155 0 0 -765z"/>
<path d="M940 6737 l0 -305 312 -306 c291 -286 313 -305 332 -293 12 7 430
281 930 608 l909 594 -310 3 -309 2 -610 -299 c-335 -165 -614 -301 -620 -303
-6 -2 -151 134 -323 301 l-311 303 0 -305z"/>
<path d="M4060 6275 l0 -155 1403 2 1402 3 3 153 3 152 -1406 0 -1405 0 0
-155z"/>
<path d="M940 4747 l0 -305 311 -306 c171 -169 314 -306 318 -304 4 2 423 275
931 608 l924 605 -309 3 -309 2 -611 -300 c-335 -164 -615 -301 -622 -302 -6
-2 -151 133 -322 300 l-311 304 0 -305z"/>
<path d="M4060 4135 l0 -155 1405 0 1405 0 0 155 0 155 -1405 0 -1405 0 0
-155z"/>
<path d="M940 2758 l0 -303 278 -275 c152 -152 293 -290 313 -308 l36 -33 929
608 928 608 -309 3 -309 2 -611 -300 c-335 -164 -615 -301 -622 -302 -6 -2
-151 133 -322 300 l-311 304 0 -304z"/>
<path d="M4060 2295 l0 -155 1403 2 1402 3 3 153 3 152 -1406 0 -1405 0 0
-155z"/>
</g>
</svg>
