<?xml version="1.0" encoding="iso-8859-1"?>
<!-- Generator: Adobe Illustrator 19.0.0, SVG Export Plug-In . SVG Version: 6.00 Build 0)  -->
<svg version="1.1" id="Layer_1" xmlns="http://www.w3.org/2000/svg" xmlns:xlink="http://www.w3.org/1999/xlink" x="0px" y="0px"
	 viewBox="0 0 512 512" style="enable-background:new 0 0 512 512;" xml:space="preserve">
<g transform="translate(1 1)">
	<g>
		<g>
			<path d="M103.96,152.6c5.12,0.853,9.387-2.56,9.387-7.68l0.853-14.507c0.853-6.827,5.973-11.947,12.8-11.947h50.347
				c6.827,0,12.8,5.12,12.8,11.947L191,144.92c0,4.267,4.267,7.68,8.533,7.68c5.12,0,8.533-4.267,8.533-8.533l-0.853-14.507
				c-0.853-16.213-14.507-28.16-29.867-28.16H127c-15.36,0-28.16,11.947-29.867,27.307l-0.853,14.507
				C95.427,148.333,98.84,152.6,103.96,152.6z"/>
			<path d="M317.293,152.6c5.12,0.853,9.387-2.56,9.387-7.68l0.853-14.507c0.853-6.827,5.973-11.947,12.8-11.947h50.347
				c6.827,0,12.8,5.12,12.8,11.947l0.853,14.507c0,4.267,4.267,7.68,8.533,7.68c5.12,0,8.533-4.267,8.533-8.533l-0.853-14.507
				c-0.853-16.213-14.507-28.16-29.867-28.16h-50.347c-15.36,0-28.16,11.947-29.867,27.307l-0.853,14.507
				C308.76,148.333,312.173,152.6,317.293,152.6z"/>
			<path d="M493.933,203.8h-34.541l-4.712-88.747c-1.707-26.453-23.893-47.787-51.2-47.787h-74.24
				c-26.453,0-49.493,20.48-51.2,46.933c-2.298,28.337-5.282,65.6-7.103,89.6h-24.946l-5.498-88.747
				c-1.707-26.453-23.893-47.787-51.2-47.787h-74.24c-26.453,0-48.64,20.48-51.2,46.933c-1.532,28.337-4.437,65.6-6.251,89.6H16.067
				C6.68,203.8-1,211.48-1,220.867v17.067c0,6.28,3.447,11.782,8.533,14.746v44.988c0,14.507,11.093,25.6,25.6,25.6h8.533v8.533
				c0,15.83,10.921,29.232,25.6,33.046v52.288c0,14.507,11.093,25.6,25.6,25.6c14.507,0,25.6-11.093,25.6-25.6v-51.2h68.267v51.2
				c0,14.507,11.093,25.6,25.6,25.6c14.507,0,25.6-11.093,25.6-25.6v-51.2H255h17.067v51.2c0,14.507,11.093,25.6,25.6,25.6
				s25.6-11.093,25.6-25.6v-51.2h68.267v51.2c0,14.507,11.093,25.6,25.6,25.6s25.6-11.093,25.6-25.6v-52.288
				c14.679-3.814,25.6-17.216,25.6-33.046v-8.533h8.533c14.507,0,25.6-11.093,25.6-25.6v-44.988
				c5.086-2.963,8.533-8.466,8.533-14.746v-17.067C511,211.48,503.32,203.8,493.933,203.8z M493.933,237.933h-51.2v-17.067h8.533
				h42.667V237.933z M294.253,115.907c1.707-17.92,16.213-31.573,34.133-31.573h74.24c17.92,0,33.28,14.507,34.133,32.427
				l5.12,87.04c-8.533,0-16.213,7.68-16.213,17.067v17.067c0,0.481,0.03,0.961,0.073,1.441c0.018,0.211,0.041,0.42,0.066,0.629
				c0.024,0.186,0.055,0.371,0.086,0.556c0.809,5.167,3.947,9.578,8.308,12.119V280.6H289.133v-27.921
				c4.362-2.541,7.499-6.952,8.308-12.119c0.03-0.185,0.061-0.37,0.086-0.556c0.026-0.209,0.048-0.418,0.066-0.629
				c0.043-0.479,0.073-0.96,0.073-1.441v-17.067c0-0.506-0.031-1.005-0.076-1.501c-0.02-0.223-0.049-0.443-0.078-0.663
				c-0.03-0.221-0.063-0.442-0.102-0.66c-0.966-5.727-4.796-10.506-9.966-12.79C289.151,181.348,291.702,143.968,294.253,115.907z
				 M255,306.2h-8.533c-5.12,0-8.533-3.413-8.533-8.533v-8.533V255h34.133v34.133v8.533c0,5.12-3.413,8.533-8.533,8.533H255z
				 M278.893,220.867h1.707v17.067h-51.2v-17.067h8.533H278.893z M80.92,115.907c1.707-17.92,16.213-31.573,34.133-31.573h74.24
				c17.92,0,33.28,14.507,34.133,32.427l5.12,87.04c-8.533,0-16.213,7.68-16.213,17.067v17.067c0,0.481,0.03,0.961,0.073,1.441
				c0.018,0.211,0.041,0.42,0.066,0.629c0.024,0.186,0.055,0.371,0.086,0.556c0.809,5.167,3.947,9.578,8.308,12.119V280.6H75.8
				v-27.921c4.362-2.541,7.499-6.952,8.308-12.119c0.03-0.185,0.061-0.37,0.086-0.556c0.026-0.209,0.048-0.418,0.066-0.629
				c0.043-0.479,0.073-0.96,0.073-1.441v-17.067c0-0.506-0.031-1.005-0.076-1.501c-0.02-0.223-0.049-0.443-0.078-0.663
				c-0.03-0.221-0.063-0.442-0.102-0.66c-0.966-5.724-4.792-10.5-9.958-12.786C76.671,181.352,79.219,143.97,80.92,115.907z
				 M16.067,220.867H65.56h1.707v17.067h-51.2V220.867z M24.6,297.667V255h34.133v34.133v8.533c0,5.12-3.413,8.533-8.533,8.533
				H33.133C28.013,306.2,24.6,302.787,24.6,297.667z M58.733,331.8v-9.909c9.463-3.176,16.164-11.575,16.976-22.068
				c0.006-0.075,0.011-0.149,0.016-0.224c0.044-0.637,0.074-1.28,0.074-1.932h145.067c0,14.507,11.093,25.6,25.6,25.6v25.6H229.4
				h-34.133h-85.333H75.8C66.413,348.867,58.733,341.187,58.733,331.8z M101.4,417.133c0,5.12-3.413,8.533-8.533,8.533
				c-5.12,0-8.533-3.413-8.533-8.533v-51.2H101.4V417.133z M220.867,417.133c0,5.12-3.413,8.533-8.533,8.533
				c-5.12,0-8.533-3.413-8.533-8.533v-51.2h17.067V417.133z M306.2,417.133c0,5.12-3.413,8.533-8.533,8.533
				s-8.533-3.413-8.533-8.533v-51.2H306.2V417.133z M425.667,417.133c0,5.12-3.413,8.533-8.533,8.533s-8.533-3.413-8.533-8.533
				v-51.2h17.067V417.133z M434.2,348.867h-34.133h-85.333H280.6h-17.067v-25.6c14.507,0,25.6-11.093,25.6-25.6H434.2
				c0,0.652,0.03,1.294,0.074,1.932c0.005,0.075,0.01,0.15,0.016,0.224c0.812,10.493,7.513,18.892,16.976,22.068v9.909
				C451.267,341.187,443.587,348.867,434.2,348.867z M485.4,297.667c0,5.12-3.413,8.533-8.533,8.533H459.8
				c-5.12,0-8.533-3.413-8.533-8.533v-8.533V255H485.4V297.667z"/>
		</g>
	</g>
</g>
<g>
</g>
<g>
</g>
<g>
</g>
<g>
</g>
<g>
</g>
<g>
</g>
<g>
</g>
<g>
</g>
<g>
</g>
<g>
</g>
<g>
</g>
<g>
</g>
<g>
</g>
<g>
</g>
<g>
</g>
</svg>
