<svg xmlns="http://www.w3.org/2000/svg" width="16.711" height="17.982" viewBox="0 0 16.711 17.982">
    <defs>
        <style>.a{fill:#878787;}</style>
    </defs>
    <g transform="translate(-17.2 0)">
        <path class="a" d="M21.963,11.84h9.908a2.044,2.044,0,0,0,2.04-2.04V5.587a.047.047,0,0,0,0-.022c0-.007,0-.018,0-.026s0-.015,0-.022a.235.235,0,0,1-.007-.026c0-.007,0-.015-.007-.022s0-.015-.007-.022a.181.181,0,0,1-.011-.026.081.081,0,0,0-.011-.018l-.011-.022c0-.007-.007-.011-.011-.018s-.011-.015-.015-.022a.065.065,0,0,0-.015-.018c0-.007-.011-.011-.015-.018s-.011-.011-.015-.018-.011-.011-.015-.015l-.018-.018c-.007,0-.011-.011-.018-.015s-.015-.011-.022-.015l-.018-.011a.077.077,0,0,1-.022-.015l-.022-.011-.022-.011-.022-.011c-.007,0-.015,0-.022-.007a.068.068,0,0,0-.026-.007.16.16,0,0,1-.018,0,.081.081,0,0,0-.03,0s-.007,0-.015,0L20.924,3.4V1.651a.227.227,0,0,0,0-.052.028.028,0,0,0,0-.015c0-.011,0-.022,0-.033s0-.018-.007-.03,0-.011,0-.018l-.011-.033s0-.011,0-.015a.111.111,0,0,0-.015-.03s0-.011-.007-.015a.077.077,0,0,0-.015-.022c0-.007-.007-.011-.011-.018s-.007-.011-.011-.018-.011-.015-.015-.022L20.8,1.318,20.78,1.3l-.011-.011a.161.161,0,0,0-.026-.022l-.015-.011c-.007-.007-.015-.011-.022-.018l-.03-.018s-.007,0-.011-.007l-.048-.022L17.894.04a.5.5,0,0,0-.388.92l2.417,1.02V12.912A2.042,2.042,0,0,0,21.7,14.933a2.013,2.013,0,1,0,3.74,1.035,1.976,1.976,0,0,0-.277-1.016H29.65a1.986,1.986,0,0,0-.277,1.016,2.014,2.014,0,1,0,2.014-2.014H21.963a1.043,1.043,0,0,1-1.042-1.042V11.559A2.063,2.063,0,0,0,21.963,11.84Zm2.483,4.124a1.016,1.016,0,1,1-1.016-1.016A1.018,1.018,0,0,1,24.446,15.964Zm7.96,0a1.016,1.016,0,1,1-1.016-1.016A1.018,1.018,0,0,1,32.407,15.964Zm-.536-5.122H21.963A1.043,1.043,0,0,1,20.921,9.8V4.408L32.913,6.06V9.8A1.044,1.044,0,0,1,31.871,10.842Z" transform="translate(0 0)"/>
    </g>
</svg>