<svg xmlns="http://www.w3.org/2000/svg" width="27.824" height="27.824" viewBox="0 0 27.824 27.824"><defs><style>.a{fill:none;stroke:#fff;}</style></defs><g transform="translate(0.5 0.5)"><path class="a" d="M13.412,0A13.412,13.412,0,1,0,26.824,13.412,13.427,13.427,0,0,0,13.412,0ZM19.4,10.342c.006.133.009.267.009.4a8.781,8.781,0,0,1-13.516,7.4,6.233,6.233,0,0,0,4.57-1.278,3.09,3.09,0,0,1-2.884-2.144,3.1,3.1,0,0,0,1.394-.052,3.088,3.088,0,0,1-2.476-3.027c0-.013,0-.026,0-.039a3.074,3.074,0,0,0,1.4.386,3.092,3.092,0,0,1-.955-4.121A8.765,8.765,0,0,0,13.3,11.09a3.089,3.089,0,0,1,5.26-2.816,6.162,6.162,0,0,0,1.961-.749,3.1,3.1,0,0,1-1.359,1.708,6.137,6.137,0,0,0,1.773-.486A6.21,6.21,0,0,1,19.4,10.342Z"/></g></svg>