<svg xmlns="http://www.w3.org/2000/svg" width="18.375" height="18.375" viewBox="0 0 18.375 18.375">
    <defs>
        <style>.a{fill:#878787;}</style>
    </defs>
    <path class="a" d="M18.375,9.188A9.188,9.188,0,1,0,1.543,14.277v.006l.063.093c.055.081.115.157.172.235l.07.1c.073.1.148.192.224.285l.067.08A9.191,9.191,0,0,0,3.3,16.235l.076.064c.091.074.183.147.277.218l.115.085c.089.066.179.13.271.193.049.033.1.065.149.1.127.083.256.163.387.239.091.053.183.106.276.156.056.03.114.058.171.088.1.051.2.1.3.147l.154.07q.176.078.356.149l.111.044a9.1,9.1,0,0,0,1.011.317L7,18.11q.229.056.462.1l.124.022q.195.034.392.061l.15.019c.128.015.258.026.387.036l.145.011c.175.009.351.016.528.016s.353-.006.528-.016l.145-.011c.13-.009.259-.021.387-.036l.15-.019q.2-.026.392-.061l.124-.022q.233-.045.462-.1l.043-.01a9.1,9.1,0,0,0,1.011-.317l.112-.044q.18-.071.356-.148l.154-.07q.152-.071.3-.147c.057-.029.115-.058.171-.088.093-.05.185-.1.276-.156q.2-.114.387-.239c.05-.032.1-.064.149-.1.092-.062.181-.127.271-.193l.115-.085q.141-.106.277-.218l.076-.064a9.2,9.2,0,0,0,1.162-1.162l.066-.08c.076-.093.151-.188.224-.285.024-.032.047-.064.07-.1.057-.078.117-.155.172-.235l.063-.093v-.006A9.132,9.132,0,0,0,18.375,9.188Zm-.613,0a8.521,8.521,0,0,1-1.1,4.194,4.178,4.178,0,0,0-4.011-2.969H10.831a.112.112,0,0,1-.112-.112v-.2A.122.122,0,0,1,10.8,10c1.972-.741,3.2-3.817,2.944-5.968a4.574,4.574,0,0,0-1.5-2.847A8.588,8.588,0,0,1,17.763,9.188ZM16.09,14.269l-.075.1c-.068.09-.137.179-.209.266l-.022.026a8.671,8.671,0,0,1-.8.84l-.051.047c-.085.077-.172.152-.26.225l-.083.068c-.085.07-.172.138-.259.2l-.09.066c-.051.037-.1.073-.153.109V14.7h-.613v1.909l-.036.021c-.078.045-.156.089-.235.131l-.164.085q-.139.07-.28.135l-.138.062q-.177.077-.357.147l-.074.029a8.547,8.547,0,0,1-.938.291l-.069.016c-.132.032-.265.06-.4.085l-.12.021q-.178.031-.358.055l-.139.018c-.119.014-.238.024-.358.033l-.133.01c-.163.01-.325.015-.489.015s-.326-.006-.488-.015l-.133-.01c-.12-.009-.239-.019-.358-.033l-.139-.018q-.18-.024-.358-.055l-.12-.021q-.2-.038-.4-.086l-.069-.016a8.62,8.62,0,0,1-.938-.291L6.11,17.19q-.18-.069-.357-.147l-.138-.062q-.141-.065-.28-.135c-.055-.028-.11-.055-.164-.085-.079-.042-.157-.087-.235-.131L4.9,16.61V14.7H4.288v1.518c-.051-.036-.1-.072-.153-.109l-.09-.066c-.088-.066-.174-.134-.259-.2L3.7,15.772q-.132-.11-.259-.225L3.391,15.5a8.628,8.628,0,0,1-.8-.84l-.022-.026c-.072-.087-.141-.176-.209-.266l-.075-.1c-.037-.05-.072-.1-.108-.152a3.567,3.567,0,0,1,3.546-3.092h.887L9.188,13.6l2.577-2.577h.887A3.567,3.567,0,0,1,16.2,14.117C16.162,14.168,16.127,14.219,16.09,14.269ZM7.807,9.43c-1.465-.542-2.6-3.045-2.6-4.836,0-.039,0-.077.006-.116L5.436,4.2a1.812,1.812,0,0,1,2.147-.429A2.45,2.45,0,0,0,10.728,2.7,5.122,5.122,0,0,1,13.16,4.384c.09,1.868-1.009,4.451-2.572,5.039a.727.727,0,0,0-.482.681v.2a.726.726,0,0,0,.724.724H10.9L9.188,12.736,7.477,11.025h.068a.726.726,0,0,0,.724-.724v-.194A.72.72,0,0,0,7.807,9.43ZM9.2.613h.01a4.062,4.062,0,0,1,.438.025,4,4,0,0,1,3.293,2.63,5.912,5.912,0,0,0-2.3-1.233l-.263-.072-.1.253a1.838,1.838,0,0,1-2.448,1,2.458,2.458,0,0,0-2.455.224A3.986,3.986,0,0,1,9.2.613Zm-3.08.569c-.059.053-.12.1-.177.16A4.563,4.563,0,0,0,4.594,4.594c0,2.03,1.283,4.775,3,5.41a.108.108,0,0,1,.062.1V10.3a.112.112,0,0,1-.112.112H5.724a4.179,4.179,0,0,0-4.012,2.969A8.565,8.565,0,0,1,6.12,1.182Z"/>
</svg>