<svg xmlns="http://www.w3.org/2000/svg" width="27.824" height="27.824" viewBox="0 0 27.824 27.824"><defs><style>.a{fill:none;stroke:#fff;}</style></defs><g transform="translate(0.5 0.5)"><path class="a" d="M224.113,213.065l4.363-2.513-4.363-2.513Zm0,0" transform="translate(-212.372 -197.14)"/><path class="a" d="M13.412,0A13.412,13.412,0,1,0,26.824,13.412,13.414,13.414,0,0,0,13.412,0Zm8.381,13.426a22.136,22.136,0,0,1-.345,4.032,2.1,2.1,0,0,1-1.477,1.477,50.977,50.977,0,0,1-6.558.345,49.153,49.153,0,0,1-6.558-.359,2.1,2.1,0,0,1-1.477-1.477,22.039,22.039,0,0,1-.345-4.031,22.121,22.121,0,0,1,.345-4.031A2.143,2.143,0,0,1,6.854,7.89a50.977,50.977,0,0,1,6.558-.345A49.048,49.048,0,0,1,19.97,7.9a2.1,2.1,0,0,1,1.477,1.477,21.006,21.006,0,0,1,.345,4.045Zm0,0"/></g></svg>