<svg xmlns="http://www.w3.org/2000/svg" width="25.664" height="25.932" viewBox="0 0 25.664 25.932"><defs><style>.a{fill:#fff;}</style></defs><g transform="translate(0)"><g transform="translate(0)"><path class="a" d="M24.368,3.1A14.164,14.164,0,0,0,15.332,0,14.164,14.164,0,0,0,6.3,3.1a9.822,9.822,0,0,0-3.8,7.595A9.553,9.553,0,0,0,5.806,17.85a13.6,13.6,0,0,0,7.654,3.224V25.4a.535.535,0,0,0,.859.425l8.017-6.131a19.259,19.259,0,0,0,4.121-3.956,8.388,8.388,0,0,0,1.705-5.041A9.822,9.822,0,0,0,24.368,3.1ZM21.691,18.839,14.53,24.315v-3.73a.535.535,0,0,0-.5-.533,12.659,12.659,0,0,1-7.515-3,8.5,8.5,0,0,1-2.951-6.36c0-5.307,5.277-9.624,11.763-9.624S27.1,5.387,27.1,10.693C27.1,14.267,24.5,16.719,21.691,18.839Z" transform="translate(-2.5)"/><path class="a" d="M220.55,145.631c0-.4-.211-.623-.547-.619s-.532.233-.534.632c-.006.738,0,1.476,0,2.213,0,.107-.01.212-.019.413-.126-.148-.2-.223-.262-.306q-1.026-1.332-2.049-2.667a.574.574,0,0,0-.656-.262.563.563,0,0,0-.4.584q-.008,2.138,0,4.274a.559.559,0,0,0,.323.542c.4.189.783-.1.787-.607.009-.7,0-1.394,0-2.092v-.4a.632.632,0,0,1,.259.209q1.023,1.316,2.043,2.636c.169.221.362.382.665.279a.566.566,0,0,0,.391-.612C220.551,148.44,220.555,147.035,220.55,145.631Z" transform="translate(-204.659 -137.255)"/><path class="a" d="M318.257,146.12c.1-.008.22-.024.34-.024.4,0,.808,0,1.211-.005a1.13,1.13,0,0,0,.439-.076.488.488,0,0,0,.262-.614.51.51,0,0,0-.538-.4q-1.075,0-2.151,0c-.514,0-.72.2-.721.712q-.008,2.031,0,4.062c0,.5.221.718.723.72q1,0,2,0a1.212,1.212,0,0,0,.327-.047.532.532,0,0,0,.014-1.013,1.478,1.478,0,0,0-.417-.052c-.5-.006-1,0-1.511,0v-1.05c.1-.009.173-.022.251-.022.475,0,.951.011,1.425-.006.413-.015.63-.242.614-.592-.014-.315-.244-.509-.622-.516-.263,0-.525,0-.79,0-.981,0-.981,0-.889-.983A.438.438,0,0,1,318.257,146.12Z" transform="translate(-300.274 -137.246)"/><path class="a" d="M105.378,149.461a2.866,2.866,0,0,0-.332-.006h-1.431v-.411c0-1.08,0-2.161,0-3.242,0-.461-.206-.718-.555-.721s-.558.242-.558.71q0,2.06,0,4.12a.583.583,0,0,0,.652.659c.393.007,1.867.013,2.21,0a.565.565,0,0,0,.563-.56A.578.578,0,0,0,105.378,149.461Z" transform="translate(-97.153 -137.324)"/><path class="a" d="M179.313,145.557c0-.416-.136-.548-.537-.549s-.547.125-.548.538q-.007,2.2,0,4.4c0,.411.15.559.537.56s.546-.151.548-.58c0-.717,0-1.434,0-2.152C179.314,147.032,179.315,146.3,179.313,145.557Z" transform="translate(-168.828 -137.256)"/></g></g></svg>